<svg width="1000" height="889" viewBox="0 0 1000 889" fill="none" xmlns="http://www.w3.org/2000/svg">
<rect x="176.365" y="69.063" width="195" height="838.484" rx="10" transform="rotate(-20 176.365 69.063)" fill="#252525"/>
<rect x="399" y="2" width="195" height="886" rx="10" fill="#252525"/>
<rect x="630.03" width="195" height="851.975" rx="10" transform="rotate(20 630.03 0)" fill="#252525"/>
<rect x="855.323" y="92.2595" width="194.356" height="896.433" rx="10" transform="rotate(42.0599 855.323 92.2595)" fill="#252525"/>
<rect y="209.344" width="195" height="886" rx="10" transform="rotate(-40 0 209.344)" fill="#252525"/>
<rect x="7.58594" y="208.924" width="189.68" height="602.244" rx="10" transform="rotate(-24.2564 7.58594 208.924)" fill="#252525"/>
<rect x="826.628" y="133.093" width="193.921" height="608.7" rx="10" transform="rotate(27.3889 826.628 133.093)" fill="#252525"/>
<rect x="695.345" y="744.413" width="26" height="173.231" transform="rotate(44.0038 695.345 744.413)" fill="#252525"/>
<rect x="258" y="250.28" width="109" height="549" transform="rotate(-20 258 250.28)" fill="white"/>
<rect x="633.769" y="213" width="109" height="549" transform="rotate(20 633.769 213)" fill="white"/>
<rect x="446" y="735" width="102" height="31" fill="white"/>
</svg>
