<svg width="1000" height="889" viewBox="0 0 1000 889" fill="none" xmlns="http://www.w3.org/2000/svg">
<rect x="176.365" y="69.0631" width="195" height="838.484" transform="rotate(-20 176.365 69.0631)" fill="#252525"/>
<rect x="399" y="2" width="195" height="886" fill="#252525"/>
<rect x="630.03" width="195" height="851.975" transform="rotate(20 630.03 0)" fill="#252525"/>
<rect x="855.322" y="92.2595" width="194.356" height="896.433" transform="rotate(42.0599 855.322 92.2595)" fill="#252525"/>
<rect y="209.344" width="195" height="886" transform="rotate(-40 0 209.344)" fill="#252525"/>
<rect x="7.58588" y="208.924" width="189.68" height="602.244" transform="rotate(-24.2564 7.58588 208.924)" fill="#252525"/>
<rect x="826.628" y="133.093" width="193.921" height="608.7" transform="rotate(27.3889 826.628 133.093)" fill="#252525"/>
<rect x="695.345" y="744.413" width="26" height="173.231" transform="rotate(44.0038 695.345 744.413)" fill="#252525"/>
<rect x="327" y="233" width="70.3458" height="427.457" fill="#EFEFEF"/>
<rect x="595.654" y="234.543" width="70.3458" height="427.457" fill="#EFEFEF"/>
<rect width="58.6601" height="321.149" transform="matrix(0.880994 -0.473128 0.375296 0.926905 345.759 262.297)" fill="#EFEFEF"/>
<rect width="58.6601" height="321.145" transform="matrix(0.880994 0.473128 -0.375296 0.926905 595.586 234.543)" fill="#EFEFEF"/>
<rect x="466.352" y="537.004" width="60.2964" height="23.1475" fill="#EFEFEF"/>
</svg>
